<?xml version="1.0" encoding="UTF-8" standalone="no"?>
<!-- Uploaded to: SVG Repo, www.svgrepo.com, Generator: SVG Repo Mixer Tools -->

<svg
   width="800"
   height="800"
   viewBox="0 0 1024 1024"
   class="icon"
   version="1.1"
   id="svg12"
   xmlns="http://www.w3.org/2000/svg"
   xmlns:svg="http://www.w3.org/2000/svg">
  <defs
     id="defs12" />
  <path
     d="m 390.4,200.8 -8,-8 c -10.4,-10.4 -24,-16 -38.4,-16 H 180.8 c -29.6,0 -54.4,24 -54.4,54.4 v 562.4 c 0,29.6 24,54.4 54.4,54.4 h 757.6 c 29.6,0 54.4,-24 54.4,-54.4 V 270.4 c 0,-29.6 -24,-54.4 -54.4,-54.4 H 428.8 c -14.4,0.8 -28,-4.8 -38.4,-15.2 z"
     fill="#f1ed7b"
     id="path1" />
  <path
     d="m 390.4,200.8 -8,-8 c -10.4,-10.4 -24,-16 -38.4,-16 H 180.8 c -29.6,0 -54.4,24 -54.4,54.4 v 562.4 c 0,29.6 24,54.4 54.4,54.4 h 757.6 c 29.6,0 54.4,-24 54.4,-54.4 V 270.4 c 0,-29.6 -24,-54.4 -54.4,-54.4 H 428.8 c -14.4,0.8 -28,-4.8 -38.4,-15.2 z"
     fill="#0e1115"
     id="path2" />
  <path
     d="M 937.6,855.2 H 180.8 c -34.4,0 -62.4,-28 -62.4,-62.4 V 230.4 c 0,-34.4 28,-62.4 62.4,-62.4 H 344 c 16.8,0 32,6.4 44,18.4 l 8,8 c 8.8,8.8 20,13.6 32.8,13.6 h 509.6 c 34.4,0 62.4,28 62.4,62.4 v 522.4 c -0.8,34.4 -28.8,62.4 -63.2,62.4 z M 180.8,184.8 c -25.6,0 -46.4,20.8 -46.4,46.4 v 562.4 c 0,25.6 20.8,46.4 46.4,46.4 h 757.6 c 25.6,0 46.4,-20.8 46.4,-46.4 V 270.4 C 984.8,244.8 964,224 938.4,224 H 428.8 c -16.8,0 -32,-6.4 -44,-18.4 l -8,-8 C 368,188.8 356.8,184 344,184 H 180.8 Z"
     fill="#6a576d"
     id="path3" />
  <path
     d="m 208,256.8 h 703.2 c 29.6,0 54.4,24 54.4,54.4 v 449.6 c 0,29.6 -24,54.4 -54.4,54.4 H 208 c -29.6,0 -54.4,-24 -54.4,-54.4 V 311.2 c 0,-29.6 24,-54.4 54.4,-54.4 z"
     fill="#ffffff"
     id="path4" />
  <path
     d="M 911.2,823.2 H 208 c -34.4,0 -62.4,-28 -62.4,-62.4 V 311.2 c 0,-34.4 28,-62.4 62.4,-62.4 h 703.2 c 34.4,0 62.4,28 62.4,62.4 v 449.6 c -0.8,34.4 -28.8,62.4 -62.4,62.4 z M 208,264.8 c -25.6,0 -46.4,20.8 -46.4,46.4 v 449.6 c 0,25.6 20.8,46.4 46.4,46.4 h 703.2 c 25.6,0 46.4,-20.8 46.4,-46.4 V 311.2 c 0,-25.6 -20.8,-46.4 -46.4,-46.4 z"
     fill="#6a576d"
     id="path5" />
  <path
     d="M 153.6,836.8 115.2,359.2 c -2.4,-31.2 22.4,-58.4 53.6,-58.4 H 872 c 28,0 52,21.6 53.6,49.6 l 39.2,486.4"
     fill="#ffffff"
     id="path6" />
  <path
     d="m 964.8,844.8 c -4,0 -8,-3.2 -8,-7.2 L 917.6,351.2 C 916,327.2 895.2,308.8 872,308.8 H 168.8 c -12.8,0 -24.8,5.6 -33.6,15.2 -8.8,9.6 -12.8,21.6 -12,35.2 l 38.4,477.6 c 0,4 -3.2,8 -7.2,8.8 -4,0 -8,-3.2 -8.8,-7.2 L 107.2,360.8 c -1.6,-17.6 4.8,-34.4 16,-47.2 12,-12.8 28,-20 45.6,-20 H 872 c 32,0 59.2,24.8 61.6,56.8 l 39.2,486.4 c 0.8,3.2 -3.2,7.2 -8,8 0.8,0 0,0 0,0 z"
     fill="#6a576d"
     id="path7" />
  <path
     d="M 153.6,847.2 88.8,322.4"
     fill="#0e1115"
     id="path8" />
  <path
     d="M 153.6,836.8 68.8,408 C 62.4,374.4 88,344 122.4,344 h 700.8 c 25.6,0 48,18.4 52.8,44 l 88.8,449.6"
     fill="#ffffff"
     id="path9" />
  <path
     d="m 964.8,844.8 c -4,0 -7.2,-2.4 -8,-6.4 L 868,388.8 C 864,367.2 844.8,352 822.4,352 h -700 c -13.6,0 -27.2,6.4 -36,16.8 -8.8,10.4 -12,24.8 -9.6,38.4 l 84.8,428 c 0.8,4 -1.6,8.8 -6.4,9.6 -4,0.8 -8.8,-1.6 -9.6,-6.4 L 60.8,409.6 c -4,-18.4 0.8,-36.8 12.8,-51.2 12,-14.4 29.6,-22.4 48,-22.4 h 700.8 c 29.6,0 55.2,20.8 60.8,50.4 L 972,836 c 0.8,4 -1.6,8.8 -6.4,9.6 0,-0.8 0,-0.8 -0.8,-0.8 z"
     fill="#6a576d"
     id="path10" />
  <path
     d="m 86.4,371.2 h 768 c 25.6,0 47.2,17.6 52.8,42.4 l 83.2,368 c 8,33.6 -18.4,66.4 -52.8,66.4 h -768 c -25.6,0 -47.2,-17.6 -52.8,-42.4 l -83.2,-368 c -8,-34.4 17.6,-66.4 52.8,-66.4 z"
     fill="#f1ed7b"
     id="path11" />
  <path
     d="m 937.6,855.2 h -768 c -28.8,0 -54.4,-20 -60.8,-48 l -83.2,-368 c -4,-18.4 0,-37.6 12,-52.8 12,-15.2 29.6,-23.2 48.8,-23.2 h 768 c 28.8,0 54.4,20 60.8,48 l 83.2,368 c 4,18.4 0,37.6 -12,52.8 -12,15.2 -29.6,23.2 -48.8,23.2 z M 86.4,379.2 c -14.4,0 -27.2,6.4 -36,17.6 -8.8,11.2 -12,25.6 -8.8,39.2 l 83.2,368 c 4.8,20.8 23.2,36 44.8,36 h 768 c 14.4,0 27.2,-6.4 36,-17.6 8.8,-11.2 12,-25.6 8.8,-39.2 l -83.2,-368 c -4.8,-20.8 -23.2,-36 -44.8,-36 z"
     fill="#6a576d"
     id="path12" />
  <path
     style="fill:#55d400;stroke-width:0.847683"
     d="M 159.58689,838.34565 C 147.59437,835.74017 134.46557,825.3004 128.98904,814.01482 126.65095,809.19666 119.69983,779.4738 83.789729,620.7433 60.449763,517.57554 41.155341,430.82748 40.913238,427.96983 c -0.556352,-6.56686 1.5281,-16.26291 4.982181,-23.17514 5.24119,-10.48854 15.976756,-19.56295 27.393884,-23.1551 l 5.968975,-1.878 H 470.88741 862.51656 l 5.47758,1.97678 c 13.91897,5.02318 23.89334,14.62943 28.79616,27.73331 0.93152,2.48977 20.65351,88.18248 43.8266,190.42824 39.14766,172.73006 42.13633,186.47197 42.18202,193.95439 0.058,9.50249 -1.97061,16.52684 -7.02364,24.32037 -4.13381,6.37596 -12.05396,13.63584 -18.08267,16.5753 -10.74828,5.24062 21.36371,4.8593 -404.15619,4.79924 -323.68894,-0.0457 -389.54614,-0.2469 -393.94953,-1.20357 z"
     id="path13" />
</svg>
